<svg xmlns="http://www.w3.org/2000/svg" width="1440" height="1000" viewBox="0 0 1440 1000"><defs><linearGradient id="nav" x2=".3" y2="1"><stop stop-color="#18345c"/><stop offset="1" stop-color="#137b97"/></linearGradient></defs><rect width="1440" height="1000" fill="#f3f6fa"/><rect x="0" y="0" width="250" height="1000" rx="0" fill="url(#nav)"/><text x="30" y="67" fill="white" font-family="Arial,sans-serif" font-size="36" font-weight="700">SoM.BI</text><text x="30" y="96" fill="#bcdce8" font-family="Arial,sans-serif" font-size="15" font-weight="400">School of Management</text><text x="30" y="170" fill="#8db6cf" font-family="Arial,sans-serif" font-size="12" font-weight="700">WORKSPACE</text><rect x="16" y="178" width="218" height="44" rx="7" fill="#ffffff24"/><text x="30" y="207" fill="#9bddf1" font-family="Arial,sans-serif" font-size="19" font-weight="400">▧</text><text x="57" y="207" fill="#ffffff" font-family="Arial,sans-serif" font-size="16" font-weight="400">KPI Overview</text><text x="30" y="264" fill="#9bddf1" font-family="Arial,sans-serif" font-size="19" font-weight="400">▧</text><text x="57" y="264" fill="#ffffff" font-family="Arial,sans-serif" font-size="16" font-weight="400">Teaching Performance</text><text x="30" y="321" fill="#9bddf1" font-family="Arial,sans-serif" font-size="19" font-weight="400">▧</text><text x="57" y="321" fill="#ffffff" font-family="Arial,sans-serif" font-size="16" font-weight="400">Research Performance</text><text x="30" y="378" fill="#9bddf1" font-family="Arial,sans-serif" font-size="19" font-weight="400">▧</text><text x="57" y="378" fill="#ffffff" font-family="Arial,sans-serif" font-size="16" font-weight="400">Academic Service</text><text x="30" y="435" fill="#9bddf1" font-family="Arial,sans-serif" font-size="19" font-weight="400">▧</text><text x="57" y="435" fill="#ffffff" font-family="Arial,sans-serif" font-size="16" font-weight="400">Arts &amp; Culture</text><text x="30" y="908" fill="#bde9ed" font-family="Arial,sans-serif" font-size="12" font-weight="700">PORTFOLIO PREVIEW</text><text x="30" y="935" fill="#fff" font-family="Arial,sans-serif" font-size="15" font-weight="400">Synthetic sample data</text><text x="30" y="961" fill="#c2e6ef" font-family="Arial,sans-serif" font-size="13" font-weight="400">No university records</text><rect x="250" y="0" width="1190" height="78" rx="12" fill="#fff"/><text x="288" y="47" fill="#243d57" font-family="Arial,sans-serif" font-size="17" font-weight="400">School of Management / Business Intelligence</text><text x="1188" y="47" fill="#64748b" font-family="Arial,sans-serif" font-size="16" font-weight="400">Demo workspace</text><text x="289" y="133" fill="#243d57" font-family="Arial,sans-serif" font-size="31" font-weight="700">My KPI Overview</text><text x="289" y="165" fill="#748194" font-family="Arial,sans-serif" font-size="17" font-weight="400">A personal view of academic contributions and activity</text><rect x="1190" y="108" width="205" height="44" rx="7" fill="#e0edf7"/><text x="1211" y="136" fill="#004086" font-family="Arial,sans-serif" font-size="17" font-weight="600">Round 1 · Demo</text><rect x="286" y="205" width="360" height="132" rx="12" fill="#fff"/><text x="311" y="265" fill="#176d97" font-family="Arial,sans-serif" font-size="38" font-weight="700">81.8%</text><text x="311" y="307" fill="#243d57" font-family="Arial,sans-serif" font-size="18" font-weight="400">Overall Performance</text><rect x="664" y="205" width="360" height="132" rx="12" fill="#fff"/><text x="689" y="265" fill="#176d97" font-family="Arial,sans-serif" font-size="38" font-weight="700">80.0%</text><text x="689" y="307" fill="#243d57" font-family="Arial,sans-serif" font-size="18" font-weight="400">Academic</text><rect x="1042" y="205" width="360" height="132" rx="12" fill="#fff"/><text x="1067" y="265" fill="#176d97" font-family="Arial,sans-serif" font-size="38" font-weight="700">84.5%</text><text x="1067" y="307" fill="#243d57" font-family="Arial,sans-serif" font-size="18" font-weight="400">Behavior</text><rect x="286" y="359" width="670" height="347" rx="12" fill="#fff"/><text x="311" y="401" fill="#243d57" font-family="Arial,sans-serif" font-size="23" font-weight="700">Domain Score Distribution</text><text x="311" y="444" fill="#243d57" font-family="Arial,sans-serif" font-size="17" font-weight="400">Teaching</text><rect x="507" y="432" width="358" height="10" rx="5" fill="#e6edf4"/><rect x="507" y="432" width="307.88" height="10" rx="5" fill="#2680b7"/><text x="885" y="444" fill="#243d57" font-family="Arial,sans-serif" font-size="15" font-weight="400">86%</text><text x="311" y="493" fill="#243d57" font-family="Arial,sans-serif" font-size="17" font-weight="400">Research</text><rect x="507" y="481" width="358" height="10" rx="5" fill="#e6edf4"/><rect x="507" y="481" width="257.76" height="10" rx="5" fill="#2680b7"/><text x="885" y="493" fill="#243d57" font-family="Arial,sans-serif" font-size="15" font-weight="400">72%</text><text x="311" y="542" fill="#243d57" font-family="Arial,sans-serif" font-size="17" font-weight="400">Academic service</text><rect x="507" y="530" width="358" height="10" rx="5" fill="#e6edf4"/><rect x="507" y="530" width="289.98" height="10" rx="5" fill="#2680b7"/><text x="885" y="542" fill="#243d57" font-family="Arial,sans-serif" font-size="15" font-weight="400">81%</text><text x="311" y="591" fill="#243d57" font-family="Arial,sans-serif" font-size="17" font-weight="400">Administration</text><rect x="507" y="579" width="358" height="10" rx="5" fill="#e6edf4"/><rect x="507" y="579" width="275.66" height="10" rx="5" fill="#2680b7"/><text x="885" y="591" fill="#243d57" font-family="Arial,sans-serif" font-size="15" font-weight="400">77%</text><text x="311" y="640" fill="#243d57" font-family="Arial,sans-serif" font-size="17" font-weight="400">Arts &amp; culture</text><rect x="507" y="628" width="358" height="10" rx="5" fill="#e6edf4"/><rect x="507" y="628" width="322.2" height="10" rx="5" fill="#2680b7"/><text x="885" y="640" fill="#243d57" font-family="Arial,sans-serif" font-size="15" font-weight="400">90%</text><rect x="979" y="359" width="424" height="347" rx="12" fill="#fff"/><text x="1003" y="401" fill="#243d57" font-family="Arial,sans-serif" font-size="23" font-weight="700">Activity Summary</text><rect x="1002" y="428" width="375" height="64" rx="12" fill="#edf5fb"/><text x="1020" y="465" fill="#243d57" font-family="Arial,sans-serif" font-size="18" font-weight="400">Teaching</text><text x="1327" y="465" fill="#176d97" font-family="Arial,sans-serif" font-size="25" font-weight="700">12</text><rect x="1002" y="510" width="375" height="64" rx="12" fill="#edf5fb"/><text x="1020" y="547" fill="#243d57" font-family="Arial,sans-serif" font-size="18" font-weight="400">Research</text><text x="1327" y="547" fill="#176d97" font-family="Arial,sans-serif" font-size="25" font-weight="700">4</text><rect x="1002" y="592" width="375" height="64" rx="12" fill="#edf5fb"/><text x="1020" y="629" fill="#243d57" font-family="Arial,sans-serif" font-size="18" font-weight="400">Academic service</text><text x="1327" y="629" fill="#176d97" font-family="Arial,sans-serif" font-size="25" font-weight="700">7</text><rect x="286" y="729" width="1117" height="200" rx="12" fill="#fff"/><text x="310" y="772" fill="#243d57" font-family="Arial,sans-serif" font-size="24" font-weight="700">Detailed Performance Breakdown</text><rect x="310" y="793" width="1068" height="44" rx="6" fill="#e5f0f7"/><text x="331" y="822" fill="#243d57" font-family="Arial,sans-serif" font-size="18" font-weight="400">Domain 1: Teaching Performance</text><text x="1335" y="822" fill="#243d57" font-family="Arial,sans-serif" font-size="22" font-weight="400">+</text><rect x="310" y="851" width="1068" height="44" rx="6" fill="#e5f0f7"/><text x="331" y="880" fill="#243d57" font-family="Arial,sans-serif" font-size="18" font-weight="400">Domain 2: Research Performance</text><text x="1335" y="880" fill="#243d57" font-family="Arial,sans-serif" font-size="22" font-weight="400">+</text><rect x="250" y="952" width="1190" height="48" rx="0" fill="#e2eaf2"/><text x="286" y="982" fill="#3a5771" font-family="Arial,sans-serif" font-size="16" font-weight="600">INTERFACE RECREATION · SAMPLE DATA · Based on the SOM BI application layouts</text></svg>